<svg xmlns="http://www.w3.org/2000/svg" viewBox="0 0 376.39999 447.91853"><defs><style>.cls-1{fill:#fff;}</style></defs><title>자산 1</title><g id="레이어_2" data-name="레이어 2"><g id="레이어_1-2" data-name="레이어 1"><path class="cls-1" d="M314.7,236.7c-.2-36.7,16.4-64.4,50-84.8-18.8-26.9-47.2-41.7-84.7-44.6-35.5-2.8-74.3,20.7-88.5,20.7-15,0-49.4-19.7-76.4-19.7C59.3,109.2,0,152.8,0,241.5q0,39.3,14.4,81.2c12.8,36.7,59,126.7,107.2,125.2,25.2-.6,43-17.9,75.8-17.9,31.8,0,48.3,17.9,76.4,17.9,48.6-.7,90.4-82.5,102.6-119.3-65.2-30.7-61.7-90-61.7-91.9ZM258.1,72.5c27.3-32.4,24.8-61.9,24-72.5-24.1,1.4-52,16.4-67.9,34.9-17.5,19.8-27.8,44.3-25.6,71.9C214.7,108.8,238.5,95.4,258.1,72.5Z"/></g></g></svg>